<?xml version="1.0" encoding="UTF-8"?>
<svg width="26px" height="21px" viewBox="0 0 26 21" version="1.1" xmlns="http://www.w3.org/2000/svg" xmlns:xlink="http://www.w3.org/1999/xlink">
    <!-- Generator: sketchtool 63.1 (101010) - https://sketch.com -->
    <title>E52E662B-921C-4F73-8AA2-03AAC5F5F698</title>
    <desc>Created with sketchtool.</desc>
    <g id="Page-1" stroke="none" stroke-width="1" fill="none" fill-rule="evenodd">
        <g id="HOME-v2" transform="translate(-1190.000000, -52.000000)" fill="#FFFFFF">
            <path d="M1216,69.85 L1216,71.95 C1216,72.2343764 1215.9464,72.4804677 1215.83919,72.6882813 C1215.73199,72.8960948 1215.60504,73 1215.45833,73 L1203.54167,73 C1203.39496,73 1203.26801,72.8960948 1203.16081,72.6882813 C1203.0536,72.4804677 1203,72.2343764 1203,71.95 L1203,69.85 C1203,69.5656236 1203.0536,69.3195323 1203.16081,69.1117187 C1203.26801,68.9039052 1203.39496,68.8 1203.54167,68.8 L1215.45833,68.8 C1215.60504,68.8 1215.73199,68.9039052 1215.83919,69.1117187 C1215.9464,69.3195323 1216,69.5656236 1216,69.85 Z M1216,61.45 L1216,63.55 C1216,63.8343764 1215.91781,64.0804677 1215.75343,64.2882812 C1215.58905,64.4960948 1215.39439,64.6 1215.16944,64.6 L1196.89722,64.6 C1196.67228,64.6 1196.47762,64.4960948 1196.31324,64.2882812 C1196.14886,64.0804677 1196.06667,63.8343764 1196.06667,63.55 L1196.06667,61.45 C1196.06667,61.1656236 1196.14886,60.9195323 1196.31324,60.7117188 C1196.47762,60.5039052 1196.67228,60.4 1196.89722,60.4 L1215.16944,60.4 C1215.39439,60.4 1215.58905,60.5039052 1215.75343,60.7117188 C1215.91781,60.9195323 1216,61.1656236 1216,61.45 Z M1216,53.05 L1216,55.15 C1216,55.4343764 1215.8928,55.6804677 1215.67839,55.8882813 C1215.46397,56.0960948 1215.21007,56.2 1214.91667,56.2 L1191.08333,56.2 C1190.78993,56.2 1190.53603,56.0960948 1190.32161,55.8882813 C1190.1072,55.6804677 1190,55.4343764 1190,55.15 L1190,53.05 C1190,52.7656236 1190.1072,52.5195323 1190.32161,52.3117188 C1190.53603,52.1039052 1190.78993,52 1191.08333,52 L1214.91667,52 C1215.21007,52 1215.46397,52.1039052 1215.67839,52.3117188 C1215.8928,52.5195323 1216,52.7656236 1216,53.05 Z" id=""></path>
        </g>
    </g>
</svg>